<?xml version="1.0" encoding="UTF-8" standalone="no"?>
<!-- Generator: Adobe Illustrator 26.0.1, SVG Export Plug-In . SVG Version: 6.00 Build 0)  -->

<svg
   version="1.1"
   id="Layer_1"
   widht="500.302"
   height="220"
   x="0px"
   y="0px"
   viewBox="0 0 280 132.79979"
   xml:space="preserve"
   sodipodi:docname="DARVAZA_sq_text_below.svg"
   width="280"
   inkscape:version="1.1.1 (3bf5ae0d25, 2021-09-20)"
   xmlns:inkscape="http://www.inkscape.org/namespaces/inkscape"
   xmlns:sodipodi="http://sodipodi.sourceforge.net/DTD/sodipodi-0.dtd"
   xmlns="http://www.w3.org/2000/svg"
   xmlns:svg="http://www.w3.org/2000/svg"><defs
   id="defs261" /><sodipodi:namedview
   id="namedview259"
   pagecolor="#ffffff"
   bordercolor="#666666"
   borderopacity="1.0"
   inkscape:pageshadow="2"
   inkscape:pageopacity="0.0"
   inkscape:pagecheckerboard="0"
   showgrid="false"
   fit-margin-top="0"
   fit-margin-left="0"
   fit-margin-right="0"
   fit-margin-bottom="0"
   inkscape:zoom="1.3271984"
   inkscape:cx="78.360555"
   inkscape:cy="104.73189"
   inkscape:window-width="1563"
   inkscape:window-height="872"
   inkscape:window-x="37"
   inkscape:window-y="0"
   inkscape:window-maximized="1"
   inkscape:current-layer="Layer_1" />
<style
   type="text/css"
   id="style144">
	.st0{fill:#CAAE87;}
	.st1{fill:#707181;}
	.st2{fill:#8EA0A0;}
</style>
<g
   id="g256"
   transform="translate(-110,-84.605105)">
	<g
   id="g238">
		<polygon
   class="st0"
   points="320.36,46.22 312.43,61.97 187.01,61.97 179.66,46.22 "
   id="polygon146" />
		<rect
   x="187.28999"
   y="103.77"
   class="st0"
   width="37.5"
   height="15.75"
   id="rect148" />
		<rect
   x="187.28999"
   y="122.94"
   class="st0"
   width="37.5"
   height="15.75"
   id="rect150" />
		<rect
   x="187.28999"
   y="142.25999"
   class="st0"
   width="11.46"
   height="15.75"
   id="rect152" />
		<rect
   x="213.36"
   y="142.25999"
   class="st0"
   width="11.44"
   height="15.75"
   id="rect154" />
		<rect
   x="187.28999"
   y="161.58"
   class="st0"
   width="11.46"
   height="15.72"
   id="rect156" />
		<rect
   x="213.36"
   y="161.58"
   class="st0"
   width="11.44"
   height="15.72"
   id="rect158" />
		<rect
   x="275.20001"
   y="84.57"
   class="st0"
   width="32.189999"
   height="15.77"
   id="rect160" />
		<rect
   x="312.73001"
   y="84.57"
   class="st0"
   width="10.77"
   height="15.77"
   id="rect162" />
		<rect
   x="176.50999"
   y="84.57"
   class="st0"
   width="10.79"
   height="15.77"
   id="rect164" />
		<rect
   x="192.63"
   y="84.57"
   class="st0"
   width="32.189999"
   height="15.77"
   id="rect166" />
		<rect
   x="275.20001"
   y="103.77"
   class="st0"
   width="37.529999"
   height="15.75"
   id="rect168" />
		<rect
   x="275.20001"
   y="122.94"
   class="st0"
   width="37.529999"
   height="15.75"
   id="rect170" />
		<rect
   x="275.20001"
   y="142.25999"
   class="st0"
   width="11.46"
   height="15.75"
   id="rect172" />
		<rect
   x="301.26001"
   y="142.25999"
   class="st0"
   width="11.46"
   height="15.75"
   id="rect174" />
		<rect
   x="275.20001"
   y="161.58"
   class="st0"
   width="11.46"
   height="15.72"
   id="rect176" />
		<rect
   x="301.26001"
   y="161.58"
   class="st0"
   width="11.46"
   height="15.72"
   id="rect178" />
		<g
   id="g212">
			<rect
   x="187.28999"
   y="65.400002"
   class="st1"
   width="5.6199999"
   height="15.75"
   id="rect180" />
			<rect
   x="195.28"
   y="65.400002"
   class="st2"
   width="5.6199999"
   height="15.75"
   id="rect182" />
			<rect
   x="203.25999"
   y="65.400002"
   class="st2"
   width="5.6199999"
   height="15.75"
   id="rect184" />
			<rect
   x="211.24001"
   y="65.400002"
   class="st1"
   width="5.6399999"
   height="15.75"
   id="rect186" />
			<rect
   x="219.24001"
   y="65.400002"
   class="st1"
   width="5.6199999"
   height="15.75"
   id="rect188" />
			<rect
   x="227.22"
   y="65.400002"
   class="st2"
   width="5.6199999"
   height="15.75"
   id="rect190" />
			<rect
   x="235.2"
   y="65.400002"
   class="st2"
   width="5.6399999"
   height="15.75"
   id="rect192" />
			<rect
   x="243.21001"
   y="65.400002"
   class="st1"
   width="5.6199999"
   height="15.75"
   id="rect194" />
			<rect
   x="251.19"
   y="65.400002"
   class="st2"
   width="5.6199999"
   height="15.75"
   id="rect196" />
			<rect
   x="259.17001"
   y="65.400002"
   class="st2"
   width="5.6399999"
   height="15.75"
   id="rect198" />
			<rect
   x="267.17999"
   y="65.400002"
   class="st1"
   width="5.6199999"
   height="15.75"
   id="rect200" />
			<rect
   x="275.16"
   y="65.400002"
   class="st1"
   width="5.6199999"
   height="15.75"
   id="rect202" />
			<rect
   x="283.14001"
   y="65.400002"
   class="st2"
   width="5.6399999"
   height="15.75"
   id="rect204" />
			<rect
   x="291.14001"
   y="65.400002"
   class="st2"
   width="5.6199999"
   height="15.75"
   id="rect206" />
			<rect
   x="299.12"
   y="65.400002"
   class="st2"
   width="5.6199999"
   height="15.75"
   id="rect208" />
			<rect
   x="307.10999"
   y="65.400002"
   class="st1"
   width="5.6199999"
   height="15.75"
   id="rect210" />
		</g>
		<rect
   x="187.28999"
   y="142.25999"
   class="st0"
   width="11.46"
   height="15.75"
   id="rect214" />
		<rect
   x="301.26001"
   y="142.25999"
   class="st0"
   width="11.46"
   height="15.75"
   id="rect216" />
		<rect
   x="187.28999"
   y="161.58"
   class="st0"
   width="11.46"
   height="15.72"
   id="rect218" />
		<rect
   x="301.26001"
   y="161.58"
   class="st0"
   width="11.46"
   height="15.72"
   id="rect220" />
		<rect
   x="275.20001"
   y="142.25999"
   class="st0"
   width="11.46"
   height="15.75"
   id="rect222" />
		<rect
   x="301.26001"
   y="142.25999"
   class="st0"
   width="11.46"
   height="15.75"
   id="rect224" />
		<rect
   x="275.20001"
   y="161.58"
   class="st0"
   width="11.46"
   height="15.75"
   id="rect226" />
		<rect
   x="301.26001"
   y="161.58"
   class="st0"
   width="11.46"
   height="15.75"
   id="rect228" />
		<rect
   x="187.28999"
   y="142.25999"
   class="st0"
   width="11.46"
   height="15.75"
   id="rect230" />
		<rect
   x="213.36"
   y="142.25999"
   class="st0"
   width="11.46"
   height="15.75"
   id="rect232" />
		<rect
   x="187.28999"
   y="161.58"
   class="st0"
   width="11.46"
   height="15.75"
   id="rect234" />
		<rect
   x="213.36"
   y="161.58"
   class="st0"
   width="11.46"
   height="15.75"
   id="rect236" />
	</g>
	<g
   id="g254">
		<path
   class="st1"
   d="m 118.46,213.81 h 0.44 9.2 c 12.03,0 21.79,9.4 21.79,20.99 0,11.59 -9.75,20.99 -21.79,20.99 h -8.86 -0.79 -3.45 v -41.98 z m 5.46,33.73 h 4.18 c 6.5,0 12.83,-5.88 12.83,-12.75 0,-6.87 -6.33,-12.75 -12.83,-12.75 h -4.18 z"
   id="path240" />
		<path
   class="st1"
   d="m 174.64,213.81 15.3,41.98 h -9.52 l -3.08,-8.44 h -14.92 l -3.08,8.44 h -9.52 l 15.29,-41.98 z m -8.99,24.67 h 8.46 l -4.23,-11.61 z"
   id="path242" />
		<path
   class="st1"
   d="m 211.18,213.81 c 9.2,0 15.71,7.51 15.71,16.77 0,7.51 -4.28,13.86 -10.8,16 l 10.92,9.21 h -12.29 l -9.82,-8.01 -1.78,-0.04 v 1.37 6.67 H 194.2 V 213.8 Z m -8.08,24.22 h 7.21 c 4.09,-0.2 7.33,-3.34 7.33,-7.46 0,-4.12 -3.24,-7.46 -7.33,-7.46 h -7.21 z"
   id="path244" />
		<path
   class="st1"
   d="m 237.34,213.81 10.63,29.16 10.63,-29.16 h 9.52 l -15.29,41.98 h -9.7 l -15.3,-41.98 z"
   id="path246" />
		<path
   class="st1"
   d="m 289.51,213.81 15.3,41.98 h -9.52 l -3.08,-8.44 h -14.92 l -3.08,8.44 h -9.52 l 15.29,-41.98 z m -8.99,24.67 h 8.46 l -4.23,-11.61 z"
   id="path248" />
		<path
   class="st1"
   d="m 340.72,213.81 v 7.64 l -20.34,25.53 h 20.34 v 8.81 h -32.53 v -7.64 l 20.34,-25.53 h -19.96 v -8.81 z"
   id="path250" />
		<path
   class="st1"
   d="m 369.7,213.81 15.3,41.98 h -9.52 l -3.08,-8.44 h -14.92 l -3.08,8.44 h -9.52 l 15.29,-41.98 z m -8.99,24.67 h 8.46 l -4.23,-11.61 z"
   id="path252" />
	</g>
</g>
</svg>
