<?xml version="1.0" encoding="UTF-8" standalone="no"?>
<!-- Generator: Adobe Illustrator 26.0.1, SVG Export Plug-In . SVG Version: 6.00 Build 0)  -->

<svg
   version="1.1"
   id="Layer_1"
   widht="500.302"
   height="150"
   x="0px"
   y="0px"
   viewBox="0 0 165 90.545315"
   xml:space="preserve"
   sodipodi:docname="DARVAZA_sq_text_none.svg"
   width="165"
   inkscape:version="1.1.1 (3bf5ae0d25, 2021-09-20)"
   xmlns:inkscape="http://www.inkscape.org/namespaces/inkscape"
   xmlns:sodipodi="http://sodipodi.sourceforge.net/DTD/sodipodi-0.dtd"
   xmlns="http://www.w3.org/2000/svg"
   xmlns:svg="http://www.w3.org/2000/svg"><defs
   id="defs916">
	
	
</defs><sodipodi:namedview
   id="namedview914"
   pagecolor="#ffffff"
   bordercolor="#666666"
   borderopacity="1.0"
   inkscape:pageshadow="2"
   inkscape:pageopacity="0.0"
   inkscape:pagecheckerboard="0"
   showgrid="false"
   fit-margin-top="0"
   fit-margin-left="0"
   fit-margin-right="0"
   fit-margin-bottom="0"
   inkscape:zoom="1.3631766"
   inkscape:cx="-161.75454"
   inkscape:cy="93.531535"
   inkscape:window-width="2560"
   inkscape:window-height="1368"
   inkscape:window-x="0"
   inkscape:window-y="0"
   inkscape:window-maximized="1"
   inkscape:current-layer="Layer_1" />
<style
   type="text/css"
   id="style799">
	.st0{fill:#CAAE87;}
	.st1{fill:#707181;}
	.st2{fill:#8EA0A0;}
</style>
<g
   id="g893"
   transform="translate(-167.505,-66.502343)">
		<polygon
   class="st0"
   points="187.01,61.97 179.66,46.22 320.36,46.22 312.43,61.97 "
   id="polygon801" />
		<rect
   x="187.28999"
   y="103.77"
   class="st0"
   width="37.5"
   height="15.75"
   id="rect803" />
		<rect
   x="187.28999"
   y="122.94"
   class="st0"
   width="37.5"
   height="15.75"
   id="rect805" />
		<rect
   x="187.28999"
   y="142.25999"
   class="st0"
   width="11.46"
   height="15.75"
   id="rect807" />
		<rect
   x="213.36"
   y="142.25999"
   class="st0"
   width="11.44"
   height="15.75"
   id="rect809" />
		<rect
   x="187.28999"
   y="161.58"
   class="st0"
   width="11.46"
   height="15.72"
   id="rect811" />
		<rect
   x="213.36"
   y="161.58"
   class="st0"
   width="11.44"
   height="15.72"
   id="rect813" />
		<rect
   x="275.20001"
   y="84.57"
   class="st0"
   width="32.189999"
   height="15.77"
   id="rect815" />
		<rect
   x="312.73001"
   y="84.57"
   class="st0"
   width="10.77"
   height="15.77"
   id="rect817" />
		<rect
   x="176.50999"
   y="84.57"
   class="st0"
   width="10.79"
   height="15.77"
   id="rect819" />
		<rect
   x="192.63"
   y="84.57"
   class="st0"
   width="32.189999"
   height="15.77"
   id="rect821" />
		<rect
   x="275.20001"
   y="103.77"
   class="st0"
   width="37.529999"
   height="15.75"
   id="rect823" />
		<rect
   x="275.20001"
   y="122.94"
   class="st0"
   width="37.529999"
   height="15.75"
   id="rect825" />
		<rect
   x="275.20001"
   y="142.25999"
   class="st0"
   width="11.46"
   height="15.75"
   id="rect827" />
		<rect
   x="301.26001"
   y="142.25999"
   class="st0"
   width="11.46"
   height="15.75"
   id="rect829" />
		<rect
   x="275.20001"
   y="161.58"
   class="st0"
   width="11.46"
   height="15.72"
   id="rect831" />
		<rect
   x="301.26001"
   y="161.58"
   class="st0"
   width="11.46"
   height="15.72"
   id="rect833" />
		<g
   id="g867">
			<rect
   x="187.28999"
   y="65.400002"
   class="st1"
   width="5.6199999"
   height="15.75"
   id="rect835" />
			<rect
   x="195.28"
   y="65.400002"
   class="st2"
   width="5.6199999"
   height="15.75"
   id="rect837" />
			<rect
   x="203.25999"
   y="65.400002"
   class="st2"
   width="5.6199999"
   height="15.75"
   id="rect839" />
			<rect
   x="211.24001"
   y="65.400002"
   class="st1"
   width="5.6399999"
   height="15.75"
   id="rect841" />
			<rect
   x="219.24001"
   y="65.400002"
   class="st1"
   width="5.6199999"
   height="15.75"
   id="rect843" />
			<rect
   x="227.22"
   y="65.400002"
   class="st2"
   width="5.6199999"
   height="15.75"
   id="rect845" />
			<rect
   x="235.2"
   y="65.400002"
   class="st2"
   width="5.6399999"
   height="15.75"
   id="rect847" />
			<rect
   x="243.21001"
   y="65.400002"
   class="st1"
   width="5.6199999"
   height="15.75"
   id="rect849" />
			<rect
   x="251.19"
   y="65.400002"
   class="st2"
   width="5.6199999"
   height="15.75"
   id="rect851" />
			<rect
   x="259.17001"
   y="65.400002"
   class="st2"
   width="5.6399999"
   height="15.75"
   id="rect853" />
			<rect
   x="267.17999"
   y="65.400002"
   class="st1"
   width="5.6199999"
   height="15.75"
   id="rect855" />
			<rect
   x="275.16"
   y="65.400002"
   class="st1"
   width="5.6199999"
   height="15.75"
   id="rect857" />
			<rect
   x="283.14001"
   y="65.400002"
   class="st2"
   width="5.6399999"
   height="15.75"
   id="rect859" />
			<rect
   x="291.14001"
   y="65.400002"
   class="st2"
   width="5.6199999"
   height="15.75"
   id="rect861" />
			<rect
   x="299.12"
   y="65.400002"
   class="st2"
   width="5.6199999"
   height="15.75"
   id="rect863" />
			<rect
   x="307.10999"
   y="65.400002"
   class="st1"
   width="5.6199999"
   height="15.75"
   id="rect865" />
		</g>
		<rect
   x="187.28999"
   y="142.25999"
   class="st0"
   width="11.46"
   height="15.75"
   id="rect869" />
		<rect
   x="301.26001"
   y="142.25999"
   class="st0"
   width="11.46"
   height="15.75"
   id="rect871" />
		<rect
   x="187.28999"
   y="161.58"
   class="st0"
   width="11.46"
   height="15.72"
   id="rect873" />
		<rect
   x="301.26001"
   y="161.58"
   class="st0"
   width="11.46"
   height="15.72"
   id="rect875" />
		<rect
   x="275.20001"
   y="142.25999"
   class="st0"
   width="11.46"
   height="15.75"
   id="rect877" />
		<rect
   x="301.26001"
   y="142.25999"
   class="st0"
   width="11.46"
   height="15.75"
   id="rect879" />
		<rect
   x="275.20001"
   y="161.58"
   class="st0"
   width="11.46"
   height="15.75"
   id="rect881" />
		<rect
   x="301.26001"
   y="161.58"
   class="st0"
   width="11.46"
   height="15.75"
   id="rect883" />
		<rect
   x="187.28999"
   y="142.25999"
   class="st0"
   width="11.46"
   height="15.75"
   id="rect885" />
		<rect
   x="213.36"
   y="142.25999"
   class="st0"
   width="11.46"
   height="15.75"
   id="rect887" />
		<rect
   x="187.28999"
   y="161.58"
   class="st0"
   width="11.46"
   height="15.75"
   id="rect889" />
		<rect
   x="213.36"
   y="161.58"
   class="st0"
   width="11.46"
   height="15.75"
   id="rect891" />
	</g>
</svg>
