<?xml version="1.0" encoding="UTF-8" standalone="no"?>
<!-- Generator: Adobe Illustrator 26.0.1, SVG Export Plug-In . SVG Version: 6.00 Build 0)  -->

<svg
   version="1.1"
   id="Layer_1"
   widht="500.302"
   height="230"
   x="0px"
   y="0px"
   viewBox="0 0 290 138.83615"
   xml:space="preserve"
   sodipodi:docname="DARVAZA_sq_text_below.svg"
   width="290"
   inkscape:version="1.1.1 (3bf5ae0d25, 2021-09-20)"
   xmlns:inkscape="http://www.inkscape.org/namespaces/inkscape"
   xmlns:sodipodi="http://sodipodi.sourceforge.net/DTD/sodipodi-0.dtd"
   xmlns="http://www.w3.org/2000/svg"
   xmlns:svg="http://www.w3.org/2000/svg"><defs
   id="defs916" /><sodipodi:namedview
   id="namedview914"
   pagecolor="#ffffff"
   bordercolor="#666666"
   borderopacity="1.0"
   inkscape:pageshadow="2"
   inkscape:pageopacity="0.0"
   inkscape:pagecheckerboard="0"
   showgrid="false"
   fit-margin-top="0"
   fit-margin-left="0"
   fit-margin-right="0"
   fit-margin-bottom="0"
   inkscape:zoom="1.3631766"
   inkscape:cx="-90.59721"
   inkscape:cy="104.53524"
   inkscape:window-width="2560"
   inkscape:window-height="1368"
   inkscape:window-x="0"
   inkscape:window-y="0"
   inkscape:window-maximized="1"
   inkscape:current-layer="Layer_1" />
<style
   type="text/css"
   id="style799">
	.st0{fill:#CAAE87;}
	.st1{fill:#707181;}
	.st2{fill:#8EA0A0;}
</style>
<g
   id="g911"
   transform="translate(-105,-81.586925)">
	<g
   id="g893">
		<polygon
   class="st0"
   points="320.36,46.22 312.43,61.97 187.01,61.97 179.66,46.22 "
   id="polygon801" />
		<rect
   x="187.28999"
   y="103.77"
   class="st0"
   width="37.5"
   height="15.75"
   id="rect803" />
		<rect
   x="187.28999"
   y="122.94"
   class="st0"
   width="37.5"
   height="15.75"
   id="rect805" />
		<rect
   x="187.28999"
   y="142.25999"
   class="st0"
   width="11.46"
   height="15.75"
   id="rect807" />
		<rect
   x="213.36"
   y="142.25999"
   class="st0"
   width="11.44"
   height="15.75"
   id="rect809" />
		<rect
   x="187.28999"
   y="161.58"
   class="st0"
   width="11.46"
   height="15.72"
   id="rect811" />
		<rect
   x="213.36"
   y="161.58"
   class="st0"
   width="11.44"
   height="15.72"
   id="rect813" />
		<rect
   x="275.20001"
   y="84.57"
   class="st0"
   width="32.189999"
   height="15.77"
   id="rect815" />
		<rect
   x="312.73001"
   y="84.57"
   class="st0"
   width="10.77"
   height="15.77"
   id="rect817" />
		<rect
   x="176.50999"
   y="84.57"
   class="st0"
   width="10.79"
   height="15.77"
   id="rect819" />
		<rect
   x="192.63"
   y="84.57"
   class="st0"
   width="32.189999"
   height="15.77"
   id="rect821" />
		<rect
   x="275.20001"
   y="103.77"
   class="st0"
   width="37.529999"
   height="15.75"
   id="rect823" />
		<rect
   x="275.20001"
   y="122.94"
   class="st0"
   width="37.529999"
   height="15.75"
   id="rect825" />
		<rect
   x="275.20001"
   y="142.25999"
   class="st0"
   width="11.46"
   height="15.75"
   id="rect827" />
		<rect
   x="301.26001"
   y="142.25999"
   class="st0"
   width="11.46"
   height="15.75"
   id="rect829" />
		<rect
   x="275.20001"
   y="161.58"
   class="st0"
   width="11.46"
   height="15.72"
   id="rect831" />
		<rect
   x="301.26001"
   y="161.58"
   class="st0"
   width="11.46"
   height="15.72"
   id="rect833" />
		<g
   id="g867">
			<rect
   x="187.28999"
   y="65.400002"
   class="st1"
   width="5.6199999"
   height="15.75"
   id="rect835" />
			<rect
   x="195.28"
   y="65.400002"
   class="st2"
   width="5.6199999"
   height="15.75"
   id="rect837" />
			<rect
   x="203.25999"
   y="65.400002"
   class="st2"
   width="5.6199999"
   height="15.75"
   id="rect839" />
			<rect
   x="211.24001"
   y="65.400002"
   class="st1"
   width="5.6399999"
   height="15.75"
   id="rect841" />
			<rect
   x="219.24001"
   y="65.400002"
   class="st1"
   width="5.6199999"
   height="15.75"
   id="rect843" />
			<rect
   x="227.22"
   y="65.400002"
   class="st2"
   width="5.6199999"
   height="15.75"
   id="rect845" />
			<rect
   x="235.2"
   y="65.400002"
   class="st2"
   width="5.6399999"
   height="15.75"
   id="rect847" />
			<rect
   x="243.21001"
   y="65.400002"
   class="st1"
   width="5.6199999"
   height="15.75"
   id="rect849" />
			<rect
   x="251.19"
   y="65.400002"
   class="st2"
   width="5.6199999"
   height="15.75"
   id="rect851" />
			<rect
   x="259.17001"
   y="65.400002"
   class="st2"
   width="5.6399999"
   height="15.75"
   id="rect853" />
			<rect
   x="267.17999"
   y="65.400002"
   class="st1"
   width="5.6199999"
   height="15.75"
   id="rect855" />
			<rect
   x="275.16"
   y="65.400002"
   class="st1"
   width="5.6199999"
   height="15.75"
   id="rect857" />
			<rect
   x="283.14001"
   y="65.400002"
   class="st2"
   width="5.6399999"
   height="15.75"
   id="rect859" />
			<rect
   x="291.14001"
   y="65.400002"
   class="st2"
   width="5.6199999"
   height="15.75"
   id="rect861" />
			<rect
   x="299.12"
   y="65.400002"
   class="st2"
   width="5.6199999"
   height="15.75"
   id="rect863" />
			<rect
   x="307.10999"
   y="65.400002"
   class="st1"
   width="5.6199999"
   height="15.75"
   id="rect865" />
		</g>
		<rect
   x="187.28999"
   y="142.25999"
   class="st0"
   width="11.46"
   height="15.75"
   id="rect869" />
		<rect
   x="301.26001"
   y="142.25999"
   class="st0"
   width="11.46"
   height="15.75"
   id="rect871" />
		<rect
   x="187.28999"
   y="161.58"
   class="st0"
   width="11.46"
   height="15.72"
   id="rect873" />
		<rect
   x="301.26001"
   y="161.58"
   class="st0"
   width="11.46"
   height="15.72"
   id="rect875" />
		<rect
   x="275.20001"
   y="142.25999"
   class="st0"
   width="11.46"
   height="15.75"
   id="rect877" />
		<rect
   x="301.26001"
   y="142.25999"
   class="st0"
   width="11.46"
   height="15.75"
   id="rect879" />
		<rect
   x="275.20001"
   y="161.58"
   class="st0"
   width="11.46"
   height="15.75"
   id="rect881" />
		<rect
   x="301.26001"
   y="161.58"
   class="st0"
   width="11.46"
   height="15.75"
   id="rect883" />
		<rect
   x="187.28999"
   y="142.25999"
   class="st0"
   width="11.46"
   height="15.75"
   id="rect885" />
		<rect
   x="213.36"
   y="142.25999"
   class="st0"
   width="11.46"
   height="15.75"
   id="rect887" />
		<rect
   x="187.28999"
   y="161.58"
   class="st0"
   width="11.46"
   height="15.75"
   id="rect889" />
		<rect
   x="213.36"
   y="161.58"
   class="st0"
   width="11.46"
   height="15.75"
   id="rect891" />
	</g>
	<g
   id="g909">
		<path
   class="st1"
   d="m 118.46,213.81 h 0.44 9.2 c 12.03,0 21.79,9.4 21.79,20.99 0,11.59 -9.75,20.99 -21.79,20.99 h -8.86 -0.79 -3.45 v -41.98 z m 5.46,33.73 h 4.18 c 6.5,0 12.83,-5.88 12.83,-12.75 0,-6.87 -6.33,-12.75 -12.83,-12.75 h -4.18 z"
   id="path895" />
		<path
   class="st1"
   d="m 174.64,213.81 15.3,41.98 h -9.52 l -3.08,-8.44 h -14.92 l -3.08,8.44 h -9.52 l 15.29,-41.98 z m -8.99,24.67 h 8.46 l -4.23,-11.61 z"
   id="path897" />
		<path
   class="st1"
   d="m 211.18,213.81 c 9.2,0 15.71,7.51 15.71,16.77 0,7.51 -4.28,13.86 -10.8,16 l 10.92,9.21 h -12.29 l -9.82,-8.01 -1.78,-0.04 v 1.37 6.67 H 194.2 V 213.8 Z m -8.08,24.22 h 7.21 c 4.09,-0.2 7.33,-3.34 7.33,-7.46 0,-4.12 -3.24,-7.46 -7.33,-7.46 h -7.21 z"
   id="path899" />
		<path
   class="st1"
   d="m 237.34,213.81 10.63,29.16 10.63,-29.16 h 9.52 l -15.29,41.98 h -9.7 l -15.3,-41.98 z"
   id="path901" />
		<path
   class="st1"
   d="m 289.51,213.81 15.3,41.98 h -9.52 l -3.08,-8.44 h -14.92 l -3.08,8.44 h -9.52 l 15.29,-41.98 z m -8.99,24.67 h 8.46 l -4.23,-11.61 z"
   id="path903" />
		<path
   class="st1"
   d="m 340.72,213.81 v 7.64 l -20.34,25.53 h 20.34 v 8.81 h -32.53 v -7.64 l 20.34,-25.53 h -19.96 v -8.81 z"
   id="path905" />
		<path
   class="st1"
   d="m 369.7,213.81 15.3,41.98 h -9.52 l -3.08,-8.44 h -14.92 l -3.08,8.44 h -9.52 l 15.29,-41.98 z m -8.99,24.67 h 8.46 l -4.23,-11.61 z"
   id="path907" />
	</g>
</g>
</svg>
