<?xml version="1.0" encoding="UTF-8" standalone="no"?>
<!-- Generator: Adobe Illustrator 26.0.1, SVG Export Plug-In . SVG Version: 6.00 Build 0)  -->

<svg
   version="1.1"
   id="Layer_1"
   width="410"
   height="110"
   x="0px"
   y="0px"
   viewBox="0 0 409.89259 28.81245"
   enable-background="new 0 0 500 131"
   xml:space="preserve"
   sodipodi:docname="DARVAZA_wd_text_right.svg"
   inkscape:version="1.1.1 (3bf5ae0d25, 2021-09-20)"
   xmlns:inkscape="http://www.inkscape.org/namespaces/inkscape"
   xmlns:sodipodi="http://sodipodi.sourceforge.net/DTD/sodipodi-0.dtd"
   xmlns="http://www.w3.org/2000/svg"
   xmlns:svg="http://www.w3.org/2000/svg"><defs
   id="defs390" /><sodipodi:namedview
   id="namedview388"
   pagecolor="#ffffff"
   bordercolor="#666666"
   borderopacity="1.0"
   inkscape:pageshadow="2"
   inkscape:pageopacity="0.0"
   inkscape:pagecheckerboard="0"
   showgrid="false"
   fit-margin-top="0"
   fit-margin-left="0"
   fit-margin-right="0"
   fit-margin-bottom="0"
   inkscape:zoom="2.3253907"
   inkscape:cx="128.79556"
   inkscape:cy="44.50865"
   inkscape:window-width="2560"
   inkscape:window-height="1368"
   inkscape:window-x="0"
   inkscape:window-y="0"
   inkscape:window-maximized="1"
   inkscape:current-layer="Layer_1" />
<g
   id="g385"
   transform="translate(-45.053705,-51.093776)">
	<g
   id="g367">
		<polygon
   fill="#caae87"
   points="64.16,31.56 59.15,20.83 155.03,20.83 149.63,31.56 "
   id="polygon275" />
		<rect
   x="64.349998"
   y="60.049999"
   fill="#caae87"
   width="25.559999"
   height="10.73"
   id="rect277" />
		<rect
   x="64.349998"
   y="73.110001"
   fill="#caae87"
   width="25.559999"
   height="10.73"
   id="rect279" />
		<rect
   x="64.349998"
   y="86.279999"
   fill="#caae87"
   width="7.8099999"
   height="10.73"
   id="rect281" />
		<rect
   x="82.110001"
   y="86.279999"
   fill="#caae87"
   width="7.8000002"
   height="10.73"
   id="rect283" />
		<rect
   x="64.349998"
   y="99.440002"
   fill="#caae87"
   width="7.8099999"
   height="10.72"
   id="rect285" />
		<rect
   x="82.110001"
   y="99.440002"
   fill="#caae87"
   width="7.8000002"
   height="10.72"
   id="rect287" />
		<rect
   x="124.26"
   y="46.970001"
   fill="#caae87"
   width="21.940001"
   height="10.75"
   id="rect289" />
		<rect
   x="149.83"
   y="46.970001"
   fill="#caae87"
   width="7.3400002"
   height="10.75"
   id="rect291" />
		<rect
   x="57"
   y="46.970001"
   fill="#caae87"
   width="7.3499999"
   height="10.75"
   id="rect293" />
		<rect
   x="67.989998"
   y="46.970001"
   fill="#caae87"
   width="21.940001"
   height="10.75"
   id="rect295" />
		<rect
   x="124.26"
   y="60.049999"
   fill="#caae87"
   width="25.57"
   height="10.73"
   id="rect297" />
		<rect
   x="124.26"
   y="73.110001"
   fill="#caae87"
   width="25.57"
   height="10.73"
   id="rect299" />
		<rect
   x="124.26"
   y="86.279999"
   fill="#caae87"
   width="7.8099999"
   height="10.73"
   id="rect301" />
		<rect
   x="142.02"
   y="86.279999"
   fill="#caae87"
   width="7.8099999"
   height="10.73"
   id="rect303" />
		<rect
   x="124.26"
   y="99.440002"
   fill="#caae87"
   width="7.8099999"
   height="10.72"
   id="rect305" />
		<rect
   x="142.02"
   y="99.440002"
   fill="#caae87"
   width="7.8099999"
   height="10.72"
   id="rect307" />
		<g
   id="g341">
			<rect
   x="64.349998"
   y="33.900002"
   fill="#707181"
   width="3.8299999"
   height="10.73"
   id="rect309" />
			<rect
   x="69.790001"
   y="33.900002"
   fill="#8ea0a0"
   width="3.8299999"
   height="10.73"
   id="rect311" />
			<rect
   x="75.230003"
   y="33.900002"
   fill="#8ea0a0"
   width="3.8299999"
   height="10.73"
   id="rect313" />
			<rect
   x="80.669998"
   y="33.900002"
   fill="#707181"
   width="3.8499999"
   height="10.73"
   id="rect315" />
			<rect
   x="86.120003"
   y="33.900002"
   fill="#707181"
   width="3.8299999"
   height="10.73"
   id="rect317" />
			<rect
   x="91.559998"
   y="33.900002"
   fill="#8ea0a0"
   width="3.8299999"
   height="10.73"
   id="rect319" />
			<rect
   x="97"
   y="33.900002"
   fill="#8ea0a0"
   width="3.8499999"
   height="10.73"
   id="rect321" />
			<rect
   x="102.46"
   y="33.900002"
   fill="#707181"
   width="3.8299999"
   height="10.73"
   id="rect323" />
			<rect
   x="107.9"
   y="33.900002"
   fill="#8ea0a0"
   width="3.8299999"
   height="10.73"
   id="rect325" />
			<rect
   x="113.34"
   y="33.900002"
   fill="#8ea0a0"
   width="3.8499999"
   height="10.73"
   id="rect327" />
			<rect
   x="118.79"
   y="33.900002"
   fill="#707181"
   width="3.8299999"
   height="10.73"
   id="rect329" />
			<rect
   x="124.23"
   y="33.900002"
   fill="#707181"
   width="3.8299999"
   height="10.73"
   id="rect331" />
			<rect
   x="129.67"
   y="33.900002"
   fill="#8ea0a0"
   width="3.8499999"
   height="10.73"
   id="rect333" />
			<rect
   x="135.12"
   y="33.900002"
   fill="#8ea0a0"
   width="3.8299999"
   height="10.73"
   id="rect335" />
			<rect
   x="140.56"
   y="33.900002"
   fill="#8ea0a0"
   width="3.8299999"
   height="10.73"
   id="rect337" />
			<rect
   x="146"
   y="33.900002"
   fill="#707181"
   width="3.8299999"
   height="10.73"
   id="rect339" />
		</g>
		<rect
   x="64.349998"
   y="86.279999"
   fill="#caae87"
   width="7.8099999"
   height="10.73"
   id="rect343" />
		<rect
   x="142.02"
   y="86.279999"
   fill="#caae87"
   width="7.8099999"
   height="10.73"
   id="rect345" />
		<rect
   x="64.349998"
   y="99.440002"
   fill="#caae87"
   width="7.8099999"
   height="10.72"
   id="rect347" />
		<rect
   x="142.02"
   y="99.440002"
   fill="#caae87"
   width="7.8099999"
   height="10.72"
   id="rect349" />
		<rect
   x="124.26"
   y="86.279999"
   fill="#caae87"
   width="7.8099999"
   height="10.73"
   id="rect351" />
		<rect
   x="142.02"
   y="86.279999"
   fill="#caae87"
   width="7.8099999"
   height="10.73"
   id="rect353" />
		<rect
   x="124.26"
   y="99.440002"
   fill="#caae87"
   width="7.8099999"
   height="10.73"
   id="rect355" />
		<rect
   x="142.02"
   y="99.440002"
   fill="#caae87"
   width="7.8099999"
   height="10.73"
   id="rect357" />
		<rect
   x="64.349998"
   y="86.279999"
   fill="#caae87"
   width="7.8099999"
   height="10.73"
   id="rect359" />
		<rect
   x="82.110001"
   y="86.279999"
   fill="#caae87"
   width="7.8099999"
   height="10.73"
   id="rect361" />
		<rect
   x="64.349998"
   y="99.440002"
   fill="#caae87"
   width="7.8099999"
   height="10.73"
   id="rect363" />
		<rect
   x="82.110001"
   y="99.440002"
   fill="#caae87"
   width="7.8099999"
   height="10.73"
   id="rect365" />
	</g>
	<g
   id="g383">
		<path
   fill="#707181"
   d="m 185.17,51.04 h 0.43 8.9 c 11.64,0 21.07,9.09 21.07,20.3 0,11.21 -9.43,20.3 -21.07,20.3 h -8.57 -0.76 -3.35 v -40.6 z m 5.28,32.63 h 4.05 c 6.28,0 12.41,-5.69 12.41,-12.33 0,-6.65 -6.13,-12.33 -12.41,-12.33 h -4.05 z"
   id="path369" />
		<path
   fill="#707181"
   d="m 239.51,51.04 14.8,40.61 h -9.21 l -2.98,-8.17 h -14.43 l -2.98,8.17 H 215.5 L 230.3,51.04 Z M 230.82,74.9 H 239 l -4.09,-11.24 z"
   id="path371" />
		<path
   fill="#707181"
   d="m 274.85,51.04 c 8.9,0 15.2,7.26 15.2,16.22 0,7.26 -4.14,13.41 -10.45,15.48 l 10.56,8.91 h -11.89 l -9.5,-7.75 -1.73,-0.03 v 1.33 6.45 h -8.63 V 51.04 Z m -7.81,23.43 h 6.97 c 3.95,-0.19 7.09,-3.23 7.09,-7.22 0,-3.98 -3.13,-7.22 -7.09,-7.22 h -6.97 z"
   id="path373" />
		<path
   fill="#707181"
   d="m 300.16,51.04 10.28,28.21 10.28,-28.21 h 9.21 l -14.8,40.61 h -9.38 l -14.8,-40.61 z"
   id="path375" />
		<path
   fill="#707181"
   d="m 350.63,51.04 14.8,40.61 h -9.21 l -2.98,-8.17 h -14.43 l -2.98,8.17 h -9.21 l 14.8,-40.61 z m -8.7,23.86 h 8.19 l -4.09,-11.24 z"
   id="path377" />
		<path
   fill="#707181"
   d="m 400.16,51.04 v 7.39 l -19.67,24.69 h 19.67 v 8.52 H 368.7 v -7.39 l 19.67,-24.69 h -19.31 v -8.52 z"
   id="path379" />
		<path
   fill="#707181"
   d="m 428.2,51.04 14.8,40.6 h -9.21 l -2.98,-8.17 h -14.43 l -2.98,8.17 h -9.21 L 419,51.04 Z m -8.69,23.86 h 8.19 l -4.09,-11.24 z"
   id="path381" />
	</g>
</g>
</svg>
