<?xml version="1.0" encoding="UTF-8" standalone="no"?>
<!-- Generator: Adobe Illustrator 26.0.1, SVG Export Plug-In . SVG Version: 6.00 Build 0)  -->

<svg
   version="1.1"
   id="Layer_1"
   widht="500.302"
   height="140"
   x="0px"
   y="0px"
   viewBox="0 0 160 84.508956"
   xml:space="preserve"
   sodipodi:docname="DARVAZA_no_text.svg"
   inkscape:version="1.1.1 (3bf5ae0d25, 2021-09-20)"
   width="160"
   xmlns:inkscape="http://www.inkscape.org/namespaces/inkscape"
   xmlns:sodipodi="http://sodipodi.sourceforge.net/DTD/sodipodi-0.dtd"
   xmlns="http://www.w3.org/2000/svg"
   xmlns:svg="http://www.w3.org/2000/svg"><defs
   id="defs724" /><sodipodi:namedview
   id="namedview722"
   pagecolor="#ffffff"
   bordercolor="#666666"
   borderopacity="1.0"
   inkscape:pageshadow="2"
   inkscape:pageopacity="0.0"
   inkscape:pagecheckerboard="0"
   showgrid="false"
   inkscape:zoom="1.3631766"
   inkscape:cx="181.928"
   inkscape:cy="79.960291"
   inkscape:window-width="1563"
   inkscape:window-height="872"
   inkscape:window-x="37"
   inkscape:window-y="0"
   inkscape:window-maximized="1"
   inkscape:current-layer="g719"
   width="160px" />
<style
   type="text/css"
   id="style607">
	.st0{fill:#CAAE87;}
	.st1{fill:#707181;}
	.st2{fill:#8EA0A0;}
</style>
<g
   id="g719">
	<g
   id="g701"
   transform="translate(-170.005,-69.520523)">
		<polygon
   class="st0"
   points="187.01,61.97 179.66,46.22 320.36,46.22 312.43,61.97 "
   id="polygon609" />
		<rect
   x="187.28999"
   y="103.77"
   class="st0"
   width="37.5"
   height="15.75"
   id="rect611" />
		<rect
   x="187.28999"
   y="122.94"
   class="st0"
   width="37.5"
   height="15.75"
   id="rect613" />
		<rect
   x="187.28999"
   y="142.25999"
   class="st0"
   width="11.46"
   height="15.75"
   id="rect615" />
		<rect
   x="213.36"
   y="142.25999"
   class="st0"
   width="11.44"
   height="15.75"
   id="rect617" />
		<rect
   x="187.28999"
   y="161.58"
   class="st0"
   width="11.46"
   height="15.72"
   id="rect619" />
		<rect
   x="213.36"
   y="161.58"
   class="st0"
   width="11.44"
   height="15.72"
   id="rect621" />
		<rect
   x="275.20001"
   y="84.57"
   class="st0"
   width="32.189999"
   height="15.77"
   id="rect623" />
		<rect
   x="312.73001"
   y="84.57"
   class="st0"
   width="10.77"
   height="15.77"
   id="rect625" />
		<rect
   x="176.50999"
   y="84.57"
   class="st0"
   width="10.79"
   height="15.77"
   id="rect627" />
		<rect
   x="192.63"
   y="84.57"
   class="st0"
   width="32.189999"
   height="15.77"
   id="rect629" />
		<rect
   x="275.20001"
   y="103.77"
   class="st0"
   width="37.529999"
   height="15.75"
   id="rect631" />
		<rect
   x="275.20001"
   y="122.94"
   class="st0"
   width="37.529999"
   height="15.75"
   id="rect633" />
		<rect
   x="275.20001"
   y="142.25999"
   class="st0"
   width="11.46"
   height="15.75"
   id="rect635" />
		<rect
   x="301.26001"
   y="142.25999"
   class="st0"
   width="11.46"
   height="15.75"
   id="rect637" />
		<rect
   x="275.20001"
   y="161.58"
   class="st0"
   width="11.46"
   height="15.72"
   id="rect639" />
		<rect
   x="301.26001"
   y="161.58"
   class="st0"
   width="11.46"
   height="15.72"
   id="rect641" />
		<g
   id="g675">
			<rect
   x="187.28999"
   y="65.400002"
   class="st1"
   width="5.6199999"
   height="15.75"
   id="rect643" />
			<rect
   x="195.28"
   y="65.400002"
   class="st2"
   width="5.6199999"
   height="15.75"
   id="rect645" />
			<rect
   x="203.25999"
   y="65.400002"
   class="st2"
   width="5.6199999"
   height="15.75"
   id="rect647" />
			<rect
   x="211.24001"
   y="65.400002"
   class="st1"
   width="5.6399999"
   height="15.75"
   id="rect649" />
			<rect
   x="219.24001"
   y="65.400002"
   class="st1"
   width="5.6199999"
   height="15.75"
   id="rect651" />
			<rect
   x="227.22"
   y="65.400002"
   class="st2"
   width="5.6199999"
   height="15.75"
   id="rect653" />
			<rect
   x="235.2"
   y="65.400002"
   class="st2"
   width="5.6399999"
   height="15.75"
   id="rect655" />
			<rect
   x="243.21001"
   y="65.400002"
   class="st1"
   width="5.6199999"
   height="15.75"
   id="rect657" />
			<rect
   x="251.19"
   y="65.400002"
   class="st2"
   width="5.6199999"
   height="15.75"
   id="rect659" />
			<rect
   x="259.17001"
   y="65.400002"
   class="st2"
   width="5.6399999"
   height="15.75"
   id="rect661" />
			<rect
   x="267.17999"
   y="65.400002"
   class="st1"
   width="5.6199999"
   height="15.75"
   id="rect663" />
			<rect
   x="275.16"
   y="65.400002"
   class="st1"
   width="5.6199999"
   height="15.75"
   id="rect665" />
			<rect
   x="283.14001"
   y="65.400002"
   class="st2"
   width="5.6399999"
   height="15.75"
   id="rect667" />
			<rect
   x="291.14001"
   y="65.400002"
   class="st2"
   width="5.6199999"
   height="15.75"
   id="rect669" />
			<rect
   x="299.12"
   y="65.400002"
   class="st2"
   width="5.6199999"
   height="15.75"
   id="rect671" />
			<rect
   x="307.10999"
   y="65.400002"
   class="st1"
   width="5.6199999"
   height="15.75"
   id="rect673" />
		</g>
		<rect
   x="187.28999"
   y="142.25999"
   class="st0"
   width="11.46"
   height="15.75"
   id="rect677" />
		<rect
   x="301.26001"
   y="142.25999"
   class="st0"
   width="11.46"
   height="15.75"
   id="rect679" />
		<rect
   x="187.28999"
   y="161.58"
   class="st0"
   width="11.46"
   height="15.72"
   id="rect681" />
		<rect
   x="301.26001"
   y="161.58"
   class="st0"
   width="11.46"
   height="15.72"
   id="rect683" />
		<rect
   x="275.20001"
   y="142.25999"
   class="st0"
   width="11.46"
   height="15.75"
   id="rect685" />
		<rect
   x="301.26001"
   y="142.25999"
   class="st0"
   width="11.46"
   height="15.75"
   id="rect687" />
		<rect
   x="275.20001"
   y="161.58"
   class="st0"
   width="11.46"
   height="15.75"
   id="rect689" />
		<rect
   x="301.26001"
   y="161.58"
   class="st0"
   width="11.46"
   height="15.75"
   id="rect691" />
		<rect
   x="187.28999"
   y="142.25999"
   class="st0"
   width="11.46"
   height="15.75"
   id="rect693" />
		<rect
   x="213.36"
   y="142.25999"
   class="st0"
   width="11.46"
   height="15.75"
   id="rect695" />
		<rect
   x="187.28999"
   y="161.58"
   class="st0"
   width="11.46"
   height="15.75"
   id="rect697" />
		<rect
   x="213.36"
   y="161.58"
   class="st0"
   width="11.46"
   height="15.75"
   id="rect699" />
	</g>
	
</g>
</svg>
