<?xml version="1.0" encoding="utf-8"?>
<!-- Generator: Adobe Illustrator 26.0.1, SVG Export Plug-In . SVG Version: 6.00 Build 0)  -->
<svg version="1.1" id="Layer_1" xmlns="http://www.w3.org/2000/svg" widht="500.302" height="500.302" xmlns:xlink="http://www.w3.org/1999/xlink" x="0px" y="0px"
	 viewBox="0 0 500 302" style="enable-background:new 0 0 500 302;" xml:space="preserve">
<style type="text/css">
	.st0{fill:#CAAE87;}
	.st1{fill:#707181;}
	.st2{fill:#8EA0A0;}
</style>
<g>
	<g>
		<polygon class="st0" points="312.43,61.97 187.01,61.97 179.66,46.22 320.36,46.22 		"/>
		<rect x="187.29" y="103.77" class="st0" width="37.5" height="15.75"/>
		<rect x="187.29" y="122.94" class="st0" width="37.5" height="15.75"/>
		<rect x="187.29" y="142.26" class="st0" width="11.46" height="15.75"/>
		<rect x="213.36" y="142.26" class="st0" width="11.44" height="15.75"/>
		<rect x="187.29" y="161.58" class="st0" width="11.46" height="15.72"/>
		<rect x="213.36" y="161.58" class="st0" width="11.44" height="15.72"/>
		<rect x="275.2" y="84.57" class="st0" width="32.19" height="15.77"/>
		<rect x="312.73" y="84.57" class="st0" width="10.77" height="15.77"/>
		<rect x="176.51" y="84.57" class="st0" width="10.79" height="15.77"/>
		<rect x="192.63" y="84.57" class="st0" width="32.19" height="15.77"/>
		<rect x="275.2" y="103.77" class="st0" width="37.53" height="15.75"/>
		<rect x="275.2" y="122.94" class="st0" width="37.53" height="15.75"/>
		<rect x="275.2" y="142.26" class="st0" width="11.46" height="15.75"/>
		<rect x="301.26" y="142.26" class="st0" width="11.46" height="15.75"/>
		<rect x="275.2" y="161.58" class="st0" width="11.46" height="15.72"/>
		<rect x="301.26" y="161.58" class="st0" width="11.46" height="15.72"/>
		<g>
			<rect x="187.29" y="65.4" class="st1" width="5.62" height="15.75"/>
			<rect x="195.28" y="65.4" class="st2" width="5.62" height="15.75"/>
			<rect x="203.26" y="65.4" class="st2" width="5.62" height="15.75"/>
			<rect x="211.24" y="65.4" class="st1" width="5.64" height="15.75"/>
			<rect x="219.24" y="65.4" class="st1" width="5.62" height="15.75"/>
			<rect x="227.22" y="65.4" class="st2" width="5.62" height="15.75"/>
			<rect x="235.2" y="65.4" class="st2" width="5.64" height="15.75"/>
			<rect x="243.21" y="65.4" class="st1" width="5.62" height="15.75"/>
			<rect x="251.19" y="65.4" class="st2" width="5.62" height="15.75"/>
			<rect x="259.17" y="65.4" class="st2" width="5.64" height="15.75"/>
			<rect x="267.18" y="65.4" class="st1" width="5.62" height="15.75"/>
			<rect x="275.16" y="65.4" class="st1" width="5.62" height="15.75"/>
			<rect x="283.14" y="65.4" class="st2" width="5.64" height="15.75"/>
			<rect x="291.14" y="65.4" class="st2" width="5.62" height="15.75"/>
			<rect x="299.12" y="65.4" class="st2" width="5.62" height="15.75"/>
			<rect x="307.11" y="65.4" class="st1" width="5.62" height="15.75"/>
		</g>
		<rect x="187.29" y="142.26" class="st0" width="11.46" height="15.75"/>
		<rect x="301.26" y="142.26" class="st0" width="11.46" height="15.75"/>
		<rect x="187.29" y="161.58" class="st0" width="11.46" height="15.72"/>
		<rect x="301.26" y="161.58" class="st0" width="11.46" height="15.72"/>
		<rect x="275.2" y="142.26" class="st0" width="11.46" height="15.75"/>
		<rect x="301.26" y="142.26" class="st0" width="11.46" height="15.75"/>
		<rect x="275.2" y="161.58" class="st0" width="11.46" height="15.75"/>
		<rect x="301.26" y="161.58" class="st0" width="11.46" height="15.75"/>
		<rect x="187.29" y="142.26" class="st0" width="11.46" height="15.75"/>
		<rect x="213.36" y="142.26" class="st0" width="11.46" height="15.75"/>
		<rect x="187.29" y="161.58" class="st0" width="11.46" height="15.75"/>
		<rect x="213.36" y="161.58" class="st0" width="11.46" height="15.75"/>
	</g>
	<g>
		<path class="st1" d="M118.46,213.81h0.44h9.2c12.03,0,21.79,9.4,21.79,20.99c0,11.59-9.75,20.99-21.79,20.99h-8.86h-0.79H115
			v-41.98H118.46z M123.92,247.54h4.18c6.5,0,12.83-5.88,12.83-12.75c0-6.87-6.33-12.75-12.83-12.75h-4.18V247.54z"/>
		<path class="st1" d="M174.64,213.81l15.3,41.98h-9.52l-3.08-8.44h-14.92l-3.08,8.44h-9.52l15.29-41.98H174.64z M165.65,238.48
			h8.46l-4.23-11.61L165.65,238.48z"/>
		<path class="st1" d="M211.18,213.81c9.2,0,15.71,7.51,15.71,16.77c0,7.51-4.28,13.86-10.8,16l10.92,9.21h-12.29l-9.82-8.01
			l-1.78-0.04v1.37v6.67h-8.92v-41.98L211.18,213.81L211.18,213.81z M203.1,238.03h7.21c4.09-0.2,7.33-3.34,7.33-7.46
			c0-4.12-3.24-7.46-7.33-7.46h-7.21V238.03z"/>
		<path class="st1" d="M237.34,213.81l10.63,29.16l10.63-29.16h9.52l-15.29,41.98h-9.7l-15.3-41.98H237.34z"/>
		<path class="st1" d="M289.51,213.81l15.3,41.98h-9.52l-3.08-8.44h-14.92l-3.08,8.44h-9.52l15.29-41.98H289.51z M280.52,238.48
			h8.46l-4.23-11.61L280.52,238.48z"/>
		<path class="st1" d="M340.72,213.81v7.64l-20.34,25.53h20.34v8.81h-32.53v-7.64l20.34-25.53h-19.96v-8.81H340.72z"/>
		<path class="st1" d="M369.7,213.81l15.3,41.98h-9.52l-3.08-8.44h-14.92l-3.08,8.44h-9.52l15.29-41.98H369.7z M360.71,238.48h8.46
			l-4.23-11.61L360.71,238.48z"/>
	</g>
</g>
</svg>
