<?xml version="1.0" encoding="utf-8"?>
<!-- Generator: Adobe Illustrator 26.0.1, SVG Export Plug-In . SVG Version: 6.00 Build 0)  -->
<svg version="1.1" id="Layer_1" xmlns="http://www.w3.org/2000/svg" width="500.131" height="500.131" xmlns:xlink="http://www.w3.org/1999/xlink" x="0px" y="0px"
	 viewBox="0 0 500 131" enable-background="new 0 0 500 131" xml:space="preserve">
<g>
	<g>
		<polygon fill="#CAAE87" points="149.63,31.56 64.16,31.56 59.15,20.83 155.03,20.83 		"/>
		<rect x="64.35" y="60.05" fill="#CAAE87" width="25.56" height="10.73"/>
		<rect x="64.35" y="73.11" fill="#CAAE87" width="25.56" height="10.73"/>
		<rect x="64.35" y="86.28" fill="#CAAE87" width="7.81" height="10.73"/>
		<rect x="82.11" y="86.28" fill="#CAAE87" width="7.8" height="10.73"/>
		<rect x="64.35" y="99.44" fill="#CAAE87" width="7.81" height="10.72"/>
		<rect x="82.11" y="99.44" fill="#CAAE87" width="7.8" height="10.72"/>
		<rect x="124.26" y="46.97" fill="#CAAE87" width="21.94" height="10.75"/>
		<rect x="149.83" y="46.97" fill="#CAAE87" width="7.34" height="10.75"/>
		<rect x="57" y="46.97" fill="#CAAE87" width="7.35" height="10.75"/>
		<rect x="67.99" y="46.97" fill="#CAAE87" width="21.94" height="10.75"/>
		<rect x="124.26" y="60.05" fill="#CAAE87" width="25.57" height="10.73"/>
		<rect x="124.26" y="73.11" fill="#CAAE87" width="25.57" height="10.73"/>
		<rect x="124.26" y="86.28" fill="#CAAE87" width="7.81" height="10.73"/>
		<rect x="142.02" y="86.28" fill="#CAAE87" width="7.81" height="10.73"/>
		<rect x="124.26" y="99.44" fill="#CAAE87" width="7.81" height="10.72"/>
		<rect x="142.02" y="99.44" fill="#CAAE87" width="7.81" height="10.72"/>
		<g>
			<rect x="64.35" y="33.9" fill="#707181" width="3.83" height="10.73"/>
			<rect x="69.79" y="33.9" fill="#8EA0A0" width="3.83" height="10.73"/>
			<rect x="75.23" y="33.9" fill="#8EA0A0" width="3.83" height="10.73"/>
			<rect x="80.67" y="33.9" fill="#707181" width="3.85" height="10.73"/>
			<rect x="86.12" y="33.9" fill="#707181" width="3.83" height="10.73"/>
			<rect x="91.56" y="33.9" fill="#8EA0A0" width="3.83" height="10.73"/>
			<rect x="97" y="33.9" fill="#8EA0A0" width="3.85" height="10.73"/>
			<rect x="102.46" y="33.9" fill="#707181" width="3.83" height="10.73"/>
			<rect x="107.9" y="33.9" fill="#8EA0A0" width="3.83" height="10.73"/>
			<rect x="113.34" y="33.9" fill="#8EA0A0" width="3.85" height="10.73"/>
			<rect x="118.79" y="33.9" fill="#707181" width="3.83" height="10.73"/>
			<rect x="124.23" y="33.9" fill="#707181" width="3.83" height="10.73"/>
			<rect x="129.67" y="33.9" fill="#8EA0A0" width="3.85" height="10.73"/>
			<rect x="135.12" y="33.9" fill="#8EA0A0" width="3.83" height="10.73"/>
			<rect x="140.56" y="33.9" fill="#8EA0A0" width="3.83" height="10.73"/>
			<rect x="146" y="33.9" fill="#707181" width="3.83" height="10.73"/>
		</g>
		<rect x="64.35" y="86.28" fill="#CAAE87" width="7.81" height="10.73"/>
		<rect x="142.02" y="86.28" fill="#CAAE87" width="7.81" height="10.73"/>
		<rect x="64.35" y="99.44" fill="#CAAE87" width="7.81" height="10.72"/>
		<rect x="142.02" y="99.44" fill="#CAAE87" width="7.81" height="10.72"/>
		<rect x="124.26" y="86.28" fill="#CAAE87" width="7.81" height="10.73"/>
		<rect x="142.02" y="86.28" fill="#CAAE87" width="7.81" height="10.73"/>
		<rect x="124.26" y="99.44" fill="#CAAE87" width="7.81" height="10.73"/>
		<rect x="142.02" y="99.44" fill="#CAAE87" width="7.81" height="10.73"/>
		<rect x="64.35" y="86.28" fill="#CAAE87" width="7.81" height="10.73"/>
		<rect x="82.11" y="86.28" fill="#CAAE87" width="7.81" height="10.73"/>
		<rect x="64.35" y="99.44" fill="#CAAE87" width="7.81" height="10.73"/>
		<rect x="82.11" y="99.44" fill="#CAAE87" width="7.81" height="10.73"/>
	</g>
	<g>
		<path fill="#707181" d="M185.17,51.04h0.43h8.9c11.64,0,21.07,9.09,21.07,20.3c0,11.21-9.43,20.3-21.07,20.3h-8.57h-0.76h-3.35
			V51.04H185.17z M190.45,83.67h4.05c6.28,0,12.41-5.69,12.41-12.33c0-6.65-6.13-12.33-12.41-12.33h-4.05V83.67z"/>
		<path fill="#707181" d="M239.51,51.04l14.8,40.61h-9.21l-2.98-8.17h-14.43l-2.98,8.17h-9.21l14.8-40.61H239.51z M230.82,74.9H239
			l-4.09-11.24L230.82,74.9z"/>
		<path fill="#707181" d="M274.85,51.04c8.9,0,15.2,7.26,15.2,16.22c0,7.26-4.14,13.41-10.45,15.48l10.56,8.91h-11.89l-9.5-7.75
			l-1.73-0.03v1.33v6.45h-8.63V51.04L274.85,51.04L274.85,51.04z M267.04,74.47h6.97c3.95-0.19,7.09-3.23,7.09-7.22
			c0-3.98-3.13-7.22-7.09-7.22h-6.97V74.47z"/>
		<path fill="#707181" d="M300.16,51.04l10.28,28.21l10.28-28.21h9.21l-14.8,40.61h-9.38l-14.8-40.61H300.16z"/>
		<path fill="#707181" d="M350.63,51.04l14.8,40.61h-9.21l-2.98-8.17h-14.43l-2.98,8.17h-9.21l14.8-40.61H350.63z M341.93,74.9h8.19
			l-4.09-11.24L341.93,74.9z"/>
		<path fill="#707181" d="M400.16,51.04v7.39l-19.67,24.69h19.67v8.52H368.7v-7.39l19.67-24.69h-19.31v-8.52H400.16z"/>
		<path fill="#707181" d="M428.2,51.04L443,91.64h-9.21l-2.98-8.17h-14.43l-2.98,8.17h-9.21L419,51.04H428.2z M419.51,74.9h8.19
			l-4.09-11.24L419.51,74.9z"/>
	</g>
</g>
</svg>
